# Blender v2.82 (sub 7) OBJ File: ''
# www.blender.org
mtllib pentagonHighRes.mtl
o Circle_Circle.005
v 0.000000 1.000000 0.000000
v -0.951056 0.309017 0.000000
v -0.587785 -0.809017 -0.000000
v 0.587785 -0.809017 -0.000000
v 0.951056 0.309017 0.000000
v -0.475528 0.654508 0.000000
v -0.769421 -0.250000 -0.000000
v 0.000000 -0.809017 -0.000000
v 0.769421 -0.250000 -0.000000
v 0.475528 0.654509 0.000000
v -0.237764 0.827254 0.000000
v -0.860239 0.029508 -0.000000
v -0.293893 -0.809017 -0.000000
v 0.678603 -0.529508 -0.000000
v 0.713292 0.481763 0.000000
v -0.713292 0.481763 0.000000
v -0.678603 -0.529509 -0.000000
v 0.293893 -0.809017 -0.000000
v 0.860239 0.029509 -0.000000
v 0.237764 0.827254 0.000000
v -0.118882 0.913627 0.000000
v -0.905648 0.169263 -0.000000
v -0.440839 -0.809017 -0.000000
v 0.633194 -0.669263 -0.000000
v 0.832174 0.395390 0.000000
v -0.594410 0.568136 0.000000
v -0.724012 -0.389754 -0.000000
v 0.146946 -0.809017 -0.000000
v 0.814830 -0.110246 -0.000000
v 0.356646 0.740881 0.000000
v -0.356646 0.740881 0.000000
v -0.814830 -0.110246 -0.000000
v -0.146946 -0.809017 -0.000000
v 0.724012 -0.389754 -0.000000
v 0.594410 0.568136 0.000000
v -0.832174 0.395390 0.000000
v -0.633194 -0.669263 -0.000000
v 0.440839 -0.809017 -0.000000
v 0.905648 0.169263 -0.000000
v 0.118882 0.913627 0.000000
vt 0.000000 0.000000
vt 0.000000 0.000000
vt 0.000000 0.000000
vt 0.000000 0.000000
vt 0.000000 0.000000
vt 0.000000 0.000000
vt 0.000000 0.000000
vt 0.000000 0.000000
vt 0.000000 0.000000
vt 0.000000 0.000000
vt 0.000000 0.000000
vt 0.000000 0.000000
vt 0.000000 0.000000
vt 0.000000 0.000000
vt 0.000000 0.000000
vt 0.000000 0.000000
vt 0.000000 0.000000
vt 0.000000 0.000000
vt 0.000000 0.000000
vt 0.000000 0.000000
vt 0.000000 0.000000
vt 0.000000 0.000000
vt 0.000000 0.000000
vt 0.000000 0.000000
vt 0.000000 0.000000
vt 0.000000 0.000000
vt 0.000000 0.000000
vt 0.000000 0.000000
vt 0.000000 0.000000
vt 0.000000 0.000000
vt 0.000000 0.000000
vt 0.000000 0.000000
vt 0.000000 0.000000
vt 0.000000 0.000000
vt 0.000000 0.000000
vt 0.000000 0.000000
vt 0.000000 0.000000
vt 0.000000 0.000000
vt 0.000000 0.000000
vt 0.000000 0.000000
vn 0.0000 -0.0000 1.0000
usemtl None
s off
f 2/1/1 22/2/1 12/3/1 32/4/1 7/5/1 27/6/1 17/7/1 37/8/1 3/9/1 23/10/1 13/11/1 33/12/1 8/13/1 28/14/1 18/15/1 38/16/1 4/17/1 24/18/1 14/19/1 34/20/1 9/21/1 29/22/1 19/23/1 39/24/1 5/25/1 25/26/1 15/27/1 35/28/1 10/29/1 30/30/1 20/31/1 40/32/1 1/33/1 21/34/1 11/35/1 31/36/1 6/37/1 26/38/1 16/39/1 36/40/1
